LJogging_XZ.mot
version=1
datacolumns 20
datarows 60
range 0.680000 1.270000
inDegrees=yes
endheader
time	pelvis_tilt	pelvis_list	pelvis_rotation	hip_flexion_r	hip_adduction_r	hip_rotation_r	knee_angle_r	ankle_angle_r	hip_flexion_l	hip_adduction_l	hip_rotation_l	knee_angle_l	ankle_angle_l	pelvis_tx	pelvis_ty	pelvis_tz	lumbar_bending	lumbar_rotation	lumbar_extension
0.680000	19.782329	-6.053248	-177.334174	-6.365649	-5.585098	-6.467544	-5.484302	-17.592259	42.179527	9.764561	1.160695	-12.144101	8.956860	1.017911	0.975965	0.046229	11.562593	-8.538073	13.903243
0.690000	19.568176	-5.439218	-177.275009	-7.161486	-4.918353	-6.180391	-6.617336	-19.108983	41.430190	9.277428	1.775401	-9.365307	9.281479	0.991863	0.978022	0.047178	11.668958	-8.053914	14.099608
0.700000	19.321875	-4.761493	-177.179183	-7.640928	-4.182164	-5.740375	-8.567122	-19.921673	40.764259	8.723091	2.280359	-7.395580	9.598581	0.965919	0.979484	0.048096	11.644818	-7.481120	14.249522
0.710000	19.057978	-4.092063	-177.060057	-7.808173	-3.457884	-5.179709	-11.270497	-20.177436	40.180874	8.167173	2.670523	-6.221435	9.852264	0.940065	0.980343	0.048934	11.525283	-6.892197	14.343260
0.720000	18.801257	-3.495809	-176.931663	-7.668285	-2.818106	-4.547447	-14.611342	-20.054632	39.681552	7.668851	2.957499	-5.792140	9.991730	0.914298	0.980576	0.049652	11.345865	-6.356342	14.383530
0.730000	18.585297	-3.025425	-176.805224	-7.224243	-2.323766	-3.902696	-18.442203	-19.718691	39.274267	7.277682	3.159630	-6.027174	9.964627	0.888631	0.980165	0.050225	11.137291	-5.934723	14.387489
0.740000	18.445990	-2.717433	-176.689167	-6.476527	-2.022277	-3.303010	-22.613390	-19.281797	38.973814	7.029648	3.287205	-6.829420	9.715450	0.863088	0.979109	0.050643	10.922573	-5.674994	14.382749
0.750000	18.409348	-2.587652	-176.587917	-5.429385	-1.942620	-2.791708	-26.998081	-18.781752	38.797152	6.943765	3.332388	-8.103536	9.198674	0.837710	0.977425	0.050908	10.712569	-5.603178	14.396250
0.760000	18.479258	-2.630547	-176.498192	-4.101062	-2.092240	-2.399037	-31.503909	-18.195408	38.755190	7.023079	3.281578	-9.773163	8.422139	0.812556	0.975130	0.051038	10.501086	-5.718681	14.440388
0.770000	18.633457	-2.826327	-176.408019	-2.529004	-2.462203	-2.152133	-36.071218	-17.475183	38.845754	7.260096	3.138906	-11.788976	7.493089	0.787701	0.972232	0.051052	10.265947	-5.998600	14.504767
0.780000	18.833953	-3.150781	-176.304326	-0.760558	-3.036414	-2.061711	-40.664577	-16.576053	39.055577	7.640282	2.922021	-14.124530	6.607296	0.763216	0.968718	0.050968	9.980632	-6.408516	14.562320
0.790000	19.044215	-3.580412	-176.184869	1.164583	-3.794205	-2.094075	-45.262085	-15.465518	39.367510	8.140043	2.635804	-16.762911	5.983021	0.739148	0.964578	0.050803	9.629724	-6.911373	14.585057
0.800000	19.237420	-4.092386	-176.062437	3.221916	-4.705414	-2.180250	-49.842882	-14.135584	39.759463	8.725022	2.272130	-19.679880	5.800315	0.715513	0.959833	0.050570	9.214365	-7.470529	14.554042
0.810000	19.395958	-4.662818	-175.960618	5.398669	-5.727173	-2.256248	-54.375549	-12.613966	40.197018	9.352843	1.831509	-22.828799	6.168430	0.692289	0.954553	0.050282	8.747581	-8.050197	14.461887
0.820000	19.511332	-5.264950	-175.908023	7.690056	-6.806060	-2.284426	-58.811567	-10.957960	40.631465	9.977876	1.327003	-26.131590	7.107737	0.669422	0.948875	0.049957	8.247853	-8.615996	14.314838
0.830000	19.582741	-5.867122	-175.930657	10.093740	-7.881898	-2.252772	-63.083069	-9.238500	41.002943	10.556381	0.775122	-29.479557	8.552146	0.646827	0.942993	0.049622	7.730532	-9.133967	14.131819
0.840000	19.613148	-6.432309	-176.042977	12.601300	-8.892366	-2.170366	-67.103340	-7.528657	41.245350	11.051670	0.191549	-32.744452	10.376820	0.624412	0.937140	0.049317	7.198124	-9.569076	13.938767
0.850000	19.606297	-6.921899	-176.242927	15.192147	-9.779538	-2.059454	-70.771503	-5.896060	41.293022	11.437752	-0.410964	-35.794234	12.433277	0.602086	0.931569	0.049078	6.635930	-9.886992	13.761765
0.860000	19.565305	-7.303059	-176.514856	17.833098	-10.496493	-1.943759	-73.982425	-4.396516	41.087091	11.699169	-1.025479	-38.506693	14.575585	0.579766	0.926525	0.048923	6.016984	-10.059510	13.620828
0.870000	19.495425	-7.555064	-176.839169	20.487076	-11.010284	-1.835144	-76.640254	-3.068962	40.583626	11.826310	-1.655405	-40.777769	16.672602	0.557380	0.922234	0.048847	5.314655	-10.070310	13.528809
0.880000	19.408582	-7.668808	-177.201746	23.124442	-11.297690	-1.724018	-78.669772	-1.931166	39.761302	11.808554	-2.314912	-42.525360	18.609247	0.534872	0.918888	0.048816	4.514334	-9.914789	13.494699
0.890000	19.320082	-7.639298	-177.599229	25.722217	-11.335723	-1.581947	-80.019991	-0.977335	38.618729	11.628692	-3.015614	-43.691045	20.286887	0.512215	0.916642	0.048792	3.618399	-9.591886	13.521828
0.900000	19.240822	-7.458418	-178.039978	28.253988	-11.096281	-1.376768	-80.660895	-0.178586	37.165251	11.262536	-3.747790	-44.241119	21.628314	0.489417	0.915609	0.048740	2.645873	-9.095899	13.602689
0.910000	19.175756	-7.114060	-178.539143	30.683389	-10.551887	-1.092023	-80.577434	0.512046	35.416998	10.686353	-4.473188	-44.167179	22.582556	0.466513	0.915867	0.048646	1.627676	-8.415805	13.720155
0.920000	19.126652	-6.596443	-179.111987	32.963571	-9.689220	-0.740493	-79.765163	1.147913	33.397077	9.888515	-5.134040	-43.485941	23.125095	0.443536	0.917455	0.048505	0.601011	-7.542468	13.853288
0.930000	19.093272	-5.906996	-179.770459	35.040547	-8.520742	-0.365141	-78.230249	1.772981	31.134622	8.878281	-5.672027	-42.238600	23.253355	0.420489	0.920368	0.048325	-0.394022	-6.478700	13.982272
0.940000	19.071305	-5.060997	-180.519471	36.856353	-7.086507	-0.027970	-75.989932	2.404855	28.661090	7.686939	-6.046250	-40.489862	22.975182	0.397324	0.924541	0.048107	-1.320963	-5.243223	14.090361
0.950000	19.051487	-4.083096	-181.351361	38.354042	-5.446805	0.210122	-73.069529	3.022669	26.008146	6.361844	-6.246353	-38.324473	22.286869	0.373945	0.929841	0.047847	-2.157406	-3.867200	14.165649
0.960000	19.024050	-3.005359	-182.243451	39.489227	-3.673564	0.313076	-69.499013	3.574193	23.211225	4.959823	-6.299986	-35.839905	21.149727	0.350222	0.936067	0.047526	-2.901171	-2.392137	14.205821
0.970000	18.980951	-1.871411	-183.158528	40.237908	-1.847453	0.283558	-65.312711	4.002276	20.310814	3.545314	-6.263696	-33.137346	19.487102	0.326028	0.942965	0.047104	-3.571338	-0.872780	14.218777
0.980000	18.910509	-0.740013	-184.044983	40.592553	-0.060139	0.156527	-60.552765	4.270171	17.346503	2.191023	-6.195364	-30.313737	17.212665	0.301269	0.950255	0.046523	-4.207731	0.620144	14.214215
0.990000	18.793681	0.316621	-184.841971	40.558442	1.586884	-0.017513	-55.277745	4.371790	14.353106	0.975339	-6.130038	-27.455270	14.269747	0.275909	0.957657	0.045716	-4.863683	2.002139	14.196030
1.000000	18.610726	1.219750	-185.495759	40.161278	2.994303	-0.181390	-49.574156	4.330029	11.365704	-0.025664	-6.078951	-24.632433	10.654218	0.249974	0.964911	0.044615	-5.587481	3.184191	14.165661
1.010000	18.351398	1.896547	-185.978446	39.455815	4.083855	-0.273767	-43.562398	4.189795	8.424965	-0.749573	-6.040264	-21.899757	6.429927	0.223534	0.971790	0.043174	-6.403030	4.089212	14.129988
1.020000	18.018436	2.295756	-186.293951	38.522779	4.812641	-0.238365	-37.391554	4.011256	5.575058	-1.158709	-6.003145	-19.302332	1.746522	0.196690	0.978107	0.041382	-7.303621	4.670174	14.103312
1.030000	17.626536	2.399702	-186.469512	37.458404	5.177642	-0.038902	-31.225568	3.864044	2.860231	-1.246958	-5.949096	-16.886587	-3.162625	0.169556	0.983717	0.039266	-8.258691	4.921524	14.105262
1.040000	17.200062	2.227720	-186.542510	36.362532	5.213176	0.332531	-25.226859	3.813209	0.323728	-1.040735	-5.855411	-14.711101	-8.004611	0.142236	0.988517	0.036890	-9.224491	4.879536	14.157484
1.050000	16.768616	1.830343	-186.550036	35.326415	4.983002	0.857971	-19.543850	3.898803	-1.993495	-0.594153	-5.699441	-12.853047	-12.459852	0.114809	0.992448	0.034342	-10.153387	4.612002	14.277895
1.060000	16.361654	1.276852	-186.523657	34.423266	4.568247	1.500810	-14.306470	4.129739	-4.054393	0.021019	-5.467299	-11.405933	-16.231658	0.087338	0.995493	0.031718	-11.000934	4.201529	14.474516
1.070000	16.003709	0.642216	-186.488535	33.702518	4.054959	2.212813	-9.626229	4.495581	-5.828001	0.727088	-5.164150	-10.467832	-19.105959	0.059872	0.997674	0.029107	-11.731289	3.729907	14.741462
1.080000	15.710619	-0.003304	-186.463269	33.187060	3.522461	2.939778	-5.594780	4.976010	-7.292180	1.450845	-4.815144	-10.124548	-20.989539	0.032463	0.999036	0.026582	-12.321871	3.267331	15.058675
1.090000	15.487630	-0.602189	-186.457385	32.873781	3.032522	3.626084	-2.279428	5.539059	-8.435830	2.131002	-4.453499	-10.433493	-21.910999	0.005169	0.999633	0.024194	-12.767201	2.866014	15.396417
1.100000	15.329821	-1.113626	-186.467653	32.737084	2.623041	4.221187	0.281582	6.140357	-9.260384	2.720384	-4.105115	-11.412164	-21.996380	-0.021953	0.999500	0.021962	-13.080273	2.558659	15.722488
1.110000	15.223965	-1.512929	-186.477585	32.735060	2.308658	4.688730	2.079862	6.729645	-9.780335	3.184748	-3.780848	-13.034416	-21.436104	-0.048857	0.998645	0.019871	-13.288624	2.360575	16.008395
1.120000	15.151902	-1.788548	-186.462550	32.818941	2.087352	5.012159	3.133718	7.251703	-10.021060	3.501856	-3.478208	-15.235401	-20.446423	-0.075517	0.997045	0.017884	-13.424976	2.273102	16.233272
1.130000	15.095706	-1.937005	-186.400316	32.944245	1.952528	5.194236	3.483785	7.637722	-10.013819	3.660076	-3.190503	-17.922246	-19.232630	-0.101929	0.994663	0.015956	-13.515278	2.289246	16.385484
1.140000	15.042209	-1.956647	-186.283501	33.080048	1.906649	5.253431	3.186763	7.802785	-9.790309	3.655223	-2.920498	-20.987043	-17.965864	-0.128098	0.991468	0.014045	-13.568367	2.401217	16.461247
1.150000	14.984426	-1.844642	-186.125590	33.214486	1.967100	5.216778	2.305874	7.657086	-9.378312	3.487246	-2.688622	-24.320976	-16.767126	-0.154025	0.987471	0.012129	-13.573161	2.604930	16.461540
1.160000	14.920749	-1.599145	-185.955449	33.356339	2.160201	5.110339	0.900108	7.128856	-8.798191	3.157474	-2.527161	-27.827705	-15.692435	-0.179689	0.982740	0.010205	-13.505842	2.898968	16.390215
1.170000	14.854633	-1.223125	-185.804665	33.533028	2.509372	4.953735	-0.984303	6.201826	-8.059921	2.665460	-2.464957	-31.432263	-14.730047	-0.205048	0.977409	0.008276	-13.342275	3.281218	16.254569
1.180000	14.794101	-0.726698	-185.696237	33.784145	3.024919	4.760972	-3.318118	4.956814	-7.162463	2.007526	-2.515776	-35.083168	-13.819161	-0.230059	0.971663	0.006346	-13.067643	3.745766	16.066009
1.190000	14.750171	-0.127913	-185.638499	34.150878	3.698143	4.541157	-6.085553	3.581187	-6.095705	1.180043	-2.675837	-38.748416	-12.884370	-0.254688	0.965704	0.004417	-12.679999	4.280513	15.839739
1.200000	14.736392	0.547202	-185.623001	34.664881	4.499127	4.293833	-9.269995	2.326785	-4.841825	0.186493	-2.923463	-42.407495	-11.867080	-0.278928	0.959727	0.002479	-12.190020	4.866289	15.595987
1.210000	14.766498	1.266551	-185.626096	35.335539	5.378393	4.006620	-12.832475	1.449370	-3.378968	-0.955425	-3.218523	-46.041787	-10.742666	-0.302791	0.953895	0.000519	-11.618320	5.477744	15.359400
1.220000	14.847908	1.997726	-185.614575	36.135870	6.274177	3.661235	-16.690092	1.156742	-1.689286	-2.211355	-3.507014	-49.627191	-9.523502	-0.326292	0.948341	-0.001474	-10.990693	6.086819	15.153027
1.230000	14.978837	2.716005	-185.554501	36.997895	7.125325	3.239820	-20.702005	1.558290	0.236213	-3.535054	-3.731685	-53.131666	-8.246875	-0.349429	0.943170	-0.003502	-10.332184	6.669337	14.993595
1.240000	15.150993	3.409034	-185.421159	37.821985	7.884528	2.727318	-24.672916	2.631607	2.396788	-4.875969	-3.845775	-56.514549	-6.956624	-0.372182	0.938484	-0.005549	-9.660403	7.209789	14.891306
1.250000	15.351170	4.073687	-185.205025	38.492952	8.523719	2.114009	-28.378931	4.234743	4.778349	-6.182246	-3.825905	-59.723942	-5.693139	-0.394515	0.934391	-0.007589	-8.980661	7.698291	14.849668
1.260000	15.560051	4.706084	-184.909448	38.897204	9.028700	1.399161	-31.608733	6.158123	7.347384	-7.397668	-3.677946	-62.693464	-4.491992	-0.416402	0.931018	-0.009592	-8.286600	8.120900	14.864435
1.270000	15.751205	5.290106	-184.541983	38.938479	9.387858	0.595490	-34.204639	8.188136	10.047369	-8.456833	-3.432121	-65.342526	-3.381003	-0.437851	0.928496	-0.011535	-7.566060	8.449691	14.923327
